<?xml version="1.0" standalone="no"?>
<!DOCTYPE svg PUBLIC "-//W3C//DTD SVG 20010904//EN"
 "http://www.w3.org/TR/2001/REC-SVG-20010904/DTD/svg10.dtd">
<svg version="1.0" xmlns="http://www.w3.org/2000/svg"
 width="40.000000pt" height="40.000000pt" viewBox="0 0 40.000000 40.000000"
 preserveAspectRatio="xMidYMid meet">

<g transform="translate(0.000000,40.000000) scale(0.100000,-0.100000)"
fill="#000000" stroke="none">
<path d="M133 389 c-18 -5 -34 -13 -37 -18 -9 -15 31 -116 44 -113 18 4 159
105 159 114 1 10 -68 28 -104 27 -16 0 -44 -5 -62 -10z"/>
<path d="M34 311 c-21 -32 -27 -54 -28 -99 l-1 -57 63 -3 c34 -2 62 1 62 6 0
11 -58 184 -64 189 -3 3 -17 -14 -32 -36z"/>
<path d="M272 319 c-23 -17 -42 -34 -42 -38 0 -9 153 -121 165 -121 4 0 5 25
2 56 -6 58 -46 134 -70 134 -7 0 -32 -14 -55 -31z"/>
<path d="M250 104 c-18 -52 -30 -97 -28 -99 9 -9 71 15 102 38 17 14 39 38 49
55 l17 30 -49 36 c-27 20 -51 36 -54 36 -3 0 -20 -43 -37 -96z"/>
<path d="M20 110 c0 -5 18 -28 39 -49 40 -40 116 -71 131 -54 6 7 40 100 40
110 0 2 -47 3 -105 3 -63 0 -105 -4 -105 -10z"/>
</g>
</svg>
